<!-- <svg xmlns="http://www.w3.org/2000/svg" width="16" height="16" viewBox="0 0 16 16">
  <defs>
    <style>
            .cls-2{fill:#9da1ab}
    </style>
  </defs>
  <g id="Delete" transform="translate(-1281 -166)">
    <g id="Group_15279" transform="translate(-554.622 -676.858)">
      <path id="Rectangle_4403" fill="none" d="M0 0H16V16H0z" transform="translate(1835.622 842.858)"/>
      <g id="noun_Delete_2034019" transform="translate(1837.622 843.056)">
        <g id="Group_15278">
          <path id="Path_8142" d="M22.4 4.413h-.606a1.147 1.147 0 0 0-1.131-.913h-2.6v-.331A.673.673 0 0 0 17.4 2.5h-2.04a.673.673 0 0 0-.669.669V3.5H12.1a1.147 1.147 0 0 0-1.132.908h-.606a.361.361 0 0 0-.362.371v.638a.361.361 0 0 0 .367.367H22.4a.361.361 0 0 0 .367-.367v-.638a.371.371 0 0 0-.367-.366z" fill="currentCOlor" transform="translate(-10 -2.5)"/>
          <path id="Path_8143" d="M26.538 28.8H16.114a.226.226 0 0 0-.223.255l1.209 9.722a1.1 1.1 0 0 0 1.084.956h6.28a1.087 1.087 0 0 0 1.084-.956l1.211-9.722a.226.226 0 0 0-.221-.255zm-7.4 8.941a.412.412 0 0 1-.414-.414l-.048-6.1a.414.414 0 0 1 .829 0l.048 6.1a.412.412 0 0 1-.411.414zm2.6-.414a.414.414 0 0 1-.829 0v-6.1a.414.414 0 0 1 .829 0zm2.184 0a.422.422 0 0 1-.414.414.422.422 0 0 1-.414-.414l.048-6.1a.414.414 0 0 1 .829 0z" fill="currentCOlor" transform="translate(-14.951 -24.608)"/>
        </g>
      </g>
    </g>
  </g>
</svg> -->

<svg width="10" height="12" viewBox="0 0 10 12" fill="none" xmlns="http://www.w3.org/2000/svg">
<path d="M7.66634 4L7.66634 10.6667L2.33301 10.6667L2.33301 4L7.66634 4ZM6.66634 0L3.33301 0L2.66634 0.666667L0.333008 0.666667L0.333008 2L9.66634 2L9.66634 0.666667L7.33301 0.666667L6.66634 0ZM8.99967 2.66667L0.999674 2.66667L0.999674 10.6667C0.999674 11.4 1.59967 12 2.33301 12L7.66634 12C8.39967 12 8.99967 11.4 8.99967 10.6667L8.99967 2.66667Z" fill="#ff0000"/>
</svg>
