<?xml version="1.0" encoding="UTF-8"?>
<svg id="Layer_2" data-name="Layer 2" xmlns="http://www.w3.org/2000/svg" viewBox="0 0 40 39.98">
  <defs>
    <style>
      .cls-1345sf {
        fill: #00dfca;
      }

      .cls-2546ergd3 {
        fill: #00dfca;;
      }

      .cls-333sdw {
        fill: #010101;
      }
    </style>
  </defs>
  <g id="Layer_1-2" data-name="Layer 1">
    <g>
      <path class="cls-333sdw"
        d="m40,21.62c-.29.32-.17.73-.22,1.09-.2,1.48-.57,2.91-1.08,4.31-.57,1.55-1.35,2.99-2.29,4.35-.87,1.26-1.87,2.4-3,3.42-1.59,1.43-3.36,2.6-5.32,3.46-1.48.65-3.01,1.11-4.6,1.41-1.66.31-3.33.39-4.99.28-2.01-.13-3.96-.6-5.83-1.35-1.86-.74-3.58-1.73-5.14-2.98-2.41-1.93-4.27-4.31-5.61-7.09-.78-1.63-1.3-3.35-1.64-5.12-.31-1.61-.34-3.26-.22-4.89.28-3.78,1.55-7.23,3.77-10.31.77-1.07,1.64-2.05,2.62-2.94,1.56-1.41,3.28-2.59,5.2-3.46,1.56-.71,3.19-1.21,4.89-1.5.56-.1,1.13-.12,1.69-.22.06-.01.13,0,.15-.08h.31c.1.12.21-.01.31,0h2.58c.35.27.78.16,1.16.22,1.13.16,2.23.39,3.32.73,2.17.67,4.14,1.74,5.97,3.08.24.18.51.37.49.78-.02.34-.13.59-.42.69-.27.1-.59.12-.84-.08-1.82-1.43-3.85-2.45-6.07-3.1-1.02-.3-2.06-.49-3.12-.61-.8-.1-1.59-.09-2.39-.12-1.32-.04-2.64.17-3.93.47-2.19.52-4.22,1.41-6.08,2.66-1.35.92-2.54,2.04-3.62,3.27-1.27,1.45-2.24,3.07-3.01,4.82-.57,1.3-.93,2.66-1.2,4.04-.29,1.48-.3,2.98-.21,4.47.11,1.91.56,3.76,1.28,5.55.75,1.85,1.77,3.54,3.06,5.06.48.57.94,1.17,1.57,1.6.2.14.25.19.33-.12.46-1.77,1.22-3.41,2.37-4.84,1.41-1.73,3.13-3.05,5.24-3.83,1.21-.45,2.44-.72,3.73-.79,3.16-.18,5.99.66,8.48,2.59,2.03,1.57,3.45,3.61,4.22,6.07.08.25.16.51.2.77.02.12.08.21.11.31.11-.04.21-.09.3-.17.55-.56,1.14-1.1,1.63-1.72.91-1.13,1.73-2.32,2.37-3.63.71-1.48,1.25-3.01,1.54-4.64.17-.92.24-1.84.33-2.77.07-.79,0-1.57-.05-2.35-.12-1.75-.51-3.47-1.16-5.11-.38-.96-.84-1.89-1.36-2.79-.29-.5-.21-.93.2-1.16.39-.22.85-.08,1.13.38,1.09,1.77,1.83,3.69,2.31,5.72.22.94.33,1.89.47,2.85,0,.05.02.1.08.11v.31c-.08.08,0,.16,0,.23v2.65Zm-20.27,16.8c.62-.06,1.14-.03,1.65-.07.79-.06,1.57-.18,2.34-.33,2.52-.48,4.78-1.55,6.89-2.97.19-.13.21-.28.17-.45-.16-.74-.33-1.47-.6-2.18-.97-2.53-2.68-4.41-5.04-5.68-1.84-.99-3.83-1.34-5.92-1.22-1.07.06-2.09.27-3.08.64-2.09.77-3.77,2.08-5.06,3.9-.87,1.23-1.45,2.57-1.76,4.04-.16.79-.19.79.48,1.23.2.13.41.25.61.38,2.89,1.79,6.03,2.67,9.31,2.71Z" />
      <path class="cls-2546ergd3" d="m19.01,0c-.1-.01-.21.12-.31,0h.31Z" />
      <path class="cls-2546ergd3" d="m40,18.97c0-.08-.08-.16,0-.23v.23Z" />
      <path class="cls-333sdw"
        d="m13,15.31c-.06-3.87,3.09-7.03,6.95-7.03,3.9,0,6.73,3,7.03,6.29.43,4.82-3.5,7.56-6.47,7.75-4.42.29-7.63-3.42-7.51-7.01Zm1.56-.03c-.1,2.96,2.5,5.55,5.45,5.49,3.02-.07,5.48-2.39,5.45-5.48-.03-3.13-2.34-5.39-5.49-5.43-3.03-.04-5.45,2.46-5.41,5.43Z" />
      <path class="cls-333sdw"
        d="m33.6,7.17c-.05-.38.24-.75.71-.76.44-.01.83.36.84.76,0,.4-.4.79-.82.79-.44,0-.74-.32-.73-.79Z" />
      <path class="cls-1345sf"
        d="m19.73,38.41c-3.28-.04-6.43-.92-9.31-2.71-.2-.13-.41-.25-.61-.38-.66-.44-.64-.44-.48-1.23.3-1.47.89-2.81,1.76-4.04,1.29-1.83,2.96-3.13,5.06-3.9.99-.36,2.01-.58,3.08-.64,2.09-.12,4.08.22,5.92,1.22,2.36,1.28,4.07,3.15,5.04,5.68.27.71.44,1.44.6,2.18.04.17.02.32-.17.45-2.11,1.43-4.37,2.49-6.89,2.97-.78.15-1.55.26-2.34.33-.52.04-1.03.02-1.65.07Z" />
      <path class="cls-1345sf"
        d="m14.56,15.28c-.04-2.97,2.39-5.47,5.41-5.43,3.14.05,5.46,2.3,5.49,5.43.03,3.1-2.43,5.42-5.45,5.48-2.94.07-5.55-2.53-5.45-5.49Z" />
    </g>
  </g>
</svg>
